<svg width="17" height="16" viewBox="0 0 17 16" fill="none" xmlns="http://www.w3.org/2000/svg">
<path d="M12.1614 1.98438C11.6379 1.98438 11.1148 2.18716 10.7083 2.59375L2.91138 10.3906L2.802 10.5L2.77075 10.6562L2.22388 13.4062L2.06763 14.1406L2.802 13.9844L5.552 13.4375L5.70825 13.4062L5.81763 13.2969L13.6145 5.5C14.4277 4.68682 14.4277 3.40693 13.6145 2.59375C13.2079 2.18716 12.6849 1.98438 12.1614 1.98438ZM12.1614 2.9375C12.4129 2.9375 12.668 3.05346 12.9114 3.29688C13.3982 3.7837 13.3982 4.31005 12.9114 4.79688L12.552 5.14062L11.0676 3.65625L11.4114 3.29688C11.6548 3.05346 11.9099 2.9375 12.1614 2.9375ZM10.3645 4.35938L11.8489 5.84375L5.802 11.8906C5.47482 11.2503 4.95792 10.7334 4.31763 10.4062L10.3645 4.35938ZM3.677 11.2188C4.27654 11.4617 4.74656 11.9317 4.9895 12.5312L3.34888 12.8594L3.677 11.2188Z" fill="currentColor"/>
</svg>
